<svg width="667" height="595" viewBox="0 0 667 595" fill="none" xmlns="http://www.w3.org/2000/svg">
<rect width="667" height="595" fill="white"/>
<path d="M333.5 112C231.041 112 148 195.041 148 297.5C148 399.959 231.041 483 333.5 483C435.959 483 519 399.959 519 297.5C519 195.041 435.959 112 333.5 112Z" fill="#202950"/>
<g filter="url(#filter0_d_484_227)">
<path d="M351.369 206.101C313.25 155.733 269.883 276.531 254 340.558C262.287 332.024 280.587 308.876 297.505 309.614C310.169 310.167 323.444 327.01 334.795 341.628C361.313 375.776 379.682 355.856 385.551 341.628C390.04 317.439 389.487 256.469 351.369 206.101Z" fill="white"/>
</g>
<g filter="url(#filter1_d_484_227)">
<path d="M382.586 373.684C342.074 404.445 310.215 369.339 298.876 348.049C297.858 346.8 295.678 344.548 292.675 345.913C290.282 347 291.642 351.965 292.675 354.458C321.118 415.165 376.361 406.15 400.154 389.705C406.163 385.867 416.122 374.038 409.455 366.207C402.529 358.07 389.131 367.631 382.586 373.684Z" fill="white"/>
</g>
<defs>
<filter id="filter0_d_484_227" x="251.849" y="194.125" width="137.767" height="170.662" filterUnits="userSpaceOnUse" color-interpolation-filters="sRGB">
<feFlood flood-opacity="0" result="BackgroundImageFix"/>
<feColorMatrix in="SourceAlpha" type="matrix" values="0 0 0 0 0 0 0 0 0 0 0 0 0 0 0 0 0 0 127 0" result="hardAlpha"/>
<feOffset dy="2.15139"/>
<feGaussianBlur stdDeviation="1.07569"/>
<feComposite in2="hardAlpha" operator="out"/>
<feColorMatrix type="matrix" values="0 0 0 0 0 0 0 0 0 0 0 0 0 0 0 0 0 0 0.25 0"/>
<feBlend mode="normal" in2="BackgroundImageFix" result="effect1_dropShadow_484_227"/>
<feBlend mode="normal" in="SourceGraphic" in2="effect1_dropShadow_484_227" result="shape"/>
</filter>
<filter id="filter1_d_484_227" x="289.191" y="345.488" width="124.628" height="60.709" filterUnits="userSpaceOnUse" color-interpolation-filters="sRGB">
<feFlood flood-opacity="0" result="BackgroundImageFix"/>
<feColorMatrix in="SourceAlpha" type="matrix" values="0 0 0 0 0 0 0 0 0 0 0 0 0 0 0 0 0 0 127 0" result="hardAlpha"/>
<feOffset dy="2.15139"/>
<feGaussianBlur stdDeviation="1.07569"/>
<feComposite in2="hardAlpha" operator="out"/>
<feColorMatrix type="matrix" values="0 0 0 0 0 0 0 0 0 0 0 0 0 0 0 0 0 0 0.25 0"/>
<feBlend mode="normal" in2="BackgroundImageFix" result="effect1_dropShadow_484_227"/>
<feBlend mode="normal" in="SourceGraphic" in2="effect1_dropShadow_484_227" result="shape"/>
</filter>
</defs>
</svg>
